<svg xmlns="http://www.w3.org/2000/svg" width="128" height="128" viewBox="0 0 128 128">
  <title>SEARCH</title>
  <g>
    <path d="M101,27A33.289,33.289,0,0,0,48.024,66.1L20.123,94A9.81,9.81,0,0,0,34,107.87l27.914-27.9A33.2,33.2,0,0,0,101,74.1h0A33.347,33.347,0,0,0,101,27ZM31.527,105.4a6.311,6.311,0,0,1-8.93-8.919L49.886,69.187a32.524,32.524,0,0,0,8.929,8.929Zm67-33.771a29.8,29.8,0,1,1,0-42.144A29.788,29.788,0,0,1,98.523,71.624Z"/>
    <path d="M77.452,25.832A24.743,24.743,0,0,0,52.737,50.547a1.75,1.75,0,0,0,3.5,0A21.239,21.239,0,0,1,77.452,29.332a1.75,1.75,0,0,0,0-3.5Z"/>
  </g>
</svg>
